# xmcd CD database file
#
# Track frame offsets:
#	150
#	14377
#	24842
#	45200
#	60942
#	75072
#	88422
#	107079
#	125885
#	140355
#	157677
#	178057
#	190225
#	203087
#
# Disc length: 2967 seconds
#
# Revision: 2
# Processed by: cddbd v1.4PL0 Copyright (c) Steve Scherf et al.
# Submitted via: CDex 1.50
#
DISCID=a30b950e
DTITLE=Nightcats - Tune in the Blues
DYEAR=1900
DGENRE=Blues
TTITLE0=A little bit of blues, a little bot of rock n' roll
TTITLE1=Rocket 88
TTITLE2=Bogie man
TTITLE3=High temperature
TTITLE4=Ain't doin too bad
TTITLE5=Tune up!
TTITLE6=You got to loose
TTITLE7=The rain, sometimes it gives me the blues
TTITLE8=You stepped in it
TTITLE9=How come you do me like you do?
TTITLE10=I wanne be the first to know
TTITLE11=Boogie woogie wonder boy
TTITLE12=One way out
TTITLE13=There's a change (inside)
EXTD=
EXTT0=
EXTT1=
EXTT2=
EXTT3=
EXTT4=
EXTT5=
EXTT6=
EXTT7=
EXTT8=
EXTT9=
EXTT10=
EXTT11=
EXTT12=
EXTT13=
PLAYORDER=
